<svg width="247" height="307" viewBox="0 0 247 307" fill="none" xmlns="http://www.w3.org/2000/svg">
<g filter="url(#filter0_d_420_33)">
<path d="M232.483 102.389L227.919 72.3878L204.219 91.3413L232.483 102.389Z" fill="#A873FF"/>
<circle cx="47.7831" cy="47.7831" r="47.7831" transform="matrix(-1 0 0 1 239.213 0)" fill="#A873FF"/>
<path d="M193.943 52.761C195.143 55.2943 196.663 57.5076 198.503 59.401C200.343 61.2943 202.169 62.521 203.983 63.081C203.983 64.201 203.689 65.0676 203.103 65.681C202.516 66.2943 201.676 66.601 200.583 66.601C199.169 66.601 197.556 65.6943 195.743 63.881C193.929 62.041 192.343 59.881 190.983 57.401C189.649 54.8943 188.863 52.6943 188.623 50.801C190.543 50.801 192.116 50.2943 193.343 49.281C194.596 48.241 195.223 46.7743 195.223 44.881C195.223 42.481 193.729 41.281 190.743 41.281C189.783 41.281 188.609 41.441 187.223 41.761C187.036 45.361 186.943 48.2676 186.943 50.481C186.943 57.5743 187.223 62.7076 187.783 65.881C186.929 66.201 186.023 66.361 185.063 66.361C184.103 66.361 183.263 66.0543 182.543 65.441C181.849 64.8276 181.503 64.0143 181.503 63.001C181.503 61.9876 181.636 60.2276 181.903 57.721C182.169 55.1876 182.303 53.161 182.303 51.641C182.303 46.9743 181.969 42.8276 181.303 39.201C184.903 38.2143 188.329 37.721 191.583 37.721C197.529 37.721 200.503 39.841 200.503 44.081C200.503 45.9476 199.863 47.7076 198.583 49.361C197.329 50.9876 195.783 52.121 193.943 52.761Z" fill="white"/>
</g>
<g filter="url(#filter1_d_420_33)">
<path d="M82.173 127.24L108.454 112.067L82.173 96.8934L82.173 127.24Z" fill="#FF7373"/>
<rect x="70.2189" y="42.6509" width="100.875" height="70.0818" rx="20" fill="#FF7373"/>
<g filter="url(#filter2_d_420_33)">
<path d="M111.167 69.0161C114.153 68.0028 117.247 67.4961 120.447 67.4961C123.647 67.4961 126.3 68.1761 128.407 69.5361C130.513 70.8961 131.567 72.9761 131.567 75.7761C131.567 78.5761 130.58 80.9361 128.607 82.8561C126.633 84.7494 124.26 85.6961 121.487 85.6961C119.46 85.6961 118.447 84.9228 118.447 83.3761C118.447 82.8961 118.54 82.3894 118.727 81.8561C119.447 82.0428 120.1 82.1361 120.687 82.1361C122.527 82.1361 123.913 81.6294 124.847 80.6161C125.807 79.6028 126.287 78.2028 126.287 76.4161C126.287 74.6028 125.78 73.2561 124.767 72.3761C123.753 71.4961 122.34 71.0561 120.527 71.0561C119.593 71.0561 118.46 71.2161 117.127 71.5361C116.913 74.8161 116.807 77.7228 116.807 80.2561C116.807 87.3494 117.087 92.4828 117.647 95.6561C116.793 95.9761 115.887 96.1361 114.927 96.1361C113.967 96.1361 113.127 95.8294 112.407 95.2161C111.713 94.6028 111.367 93.7894 111.367 92.7761C111.367 91.7628 111.5 90.0028 111.767 87.4961C112.033 84.9628 112.167 82.9361 112.167 81.4161C112.167 76.7761 111.833 72.6428 111.167 69.0161Z" fill="white"/>
</g>
</g>
<g filter="url(#filter3_d_420_33)">
<g filter="url(#filter4_d_420_33)">
<path d="M84.5366 278.812L93.6633 288.601C93.6633 288.601 111.249 297.723 98.7832 298.836C86.3174 299.948 82.088 295.053 82.088 295.053C82.088 295.053 66.5057 293.941 66.7283 291.716C66.9509 289.491 68.0639 282.149 68.0639 282.149L84.5366 278.812Z" fill="#2F2E41"/>
</g>
<g filter="url(#filter5_d_420_33)">
<path d="M35.0073 281.172V288.069C35.0073 288.069 34.7847 290.961 35.0073 291.629C35.2299 292.296 38.569 300.528 27.4388 298.748C16.3086 296.968 20.7607 290.071 20.7607 290.071L23.4319 280.059L35.0073 281.172Z" fill="#2F2E41"/>
</g>
<g filter="url(#filter6_d_420_33)">
<path d="M63.0126 129.626L74.51 138.683L98.8723 130.126C98.8723 130.126 107.156 120.813 111.84 127.749C113.444 130.125 102.937 134.513 101.945 134.921C99.4671 135.941 75.7275 148.958 73.4012 147.25C71.0749 145.542 57.9862 136.904 57.9862 136.904L63.0126 129.626Z" fill="#A0616A"/>
</g>
<g filter="url(#filter7_d_420_33)">
<path d="M13.9883 177.693C24.885 173.624 35.2508 171.698 43.655 177.693L53.4324 94.8257C53.4324 92.8788 53.0487 90.9509 52.3032 89.1522C51.5578 87.3534 50.4652 85.719 49.0878 84.3423C47.7104 82.9657 46.0752 81.8736 44.2755 81.1285C42.4759 80.3835 40.547 80 38.5991 80C36.6511 80 34.7222 80.3835 32.9226 81.1285C31.1229 81.8736 29.4877 82.9657 28.1103 84.3424C26.7329 85.7191 25.6403 87.3534 24.8948 89.1522C24.1494 90.9509 23.7657 92.8788 23.7657 94.8257L13.9883 177.693Z" fill="black"/>
</g>
<g filter="url(#filter8_d_420_33)">
<path d="M51.1461 156.442L52.0366 162.672C52.0366 162.672 54.2626 169.347 52.0366 181.806L87.8757 279.479L61.3859 287.044L48.2523 233.646L29.7762 192.931L31.5571 239.208L40.9064 288.601L13.3036 287.489L5.26009 202.795C3.95947 189.41 6.28241 175.922 11.9858 163.742C14.2172 159.005 16.6163 155.272 18.7933 154.731C25.3242 153.105 51.1461 156.442 51.1461 156.442Z" fill="#1F1F1F"/>
</g>
<g filter="url(#filter9_d_420_33)">
<path d="M38.7359 108.385C32.5582 108.385 27.5501 103.379 27.5501 97.2046C27.5501 91.03 32.5582 86.0245 38.7359 86.0245C44.9137 86.0245 49.9218 91.03 49.9218 97.2046C49.9218 103.379 44.9137 108.385 38.7359 108.385Z" fill="#A0616A"/>
</g>
<g filter="url(#filter10_d_420_33)">
<path d="M31.0003 103.379C31.0003 103.379 32.5586 118.063 31.0003 120.733C29.4421 123.403 46.8052 118.063 46.8052 118.063C46.8052 118.063 43.0209 108.051 44.3565 104.046C45.6922 100.041 31.0003 103.379 31.0003 103.379Z" fill="#A0616A"/>
</g>
<g filter="url(#filter11_d_420_33)">
<path d="M22.0963 145.652L18.5347 155.441L51.7026 159.224C51.7026 159.224 55.2643 158.556 55.2643 155.664C55.2643 152.771 59.0485 142.537 59.0485 142.537C59.0485 142.537 68.3167 135.029 72.7688 133.026C74.3826 132.301 71.9685 132.601 70.6106 129.521C70.2032 128.596 69.7157 127.619 69.1837 126.629C68.7496 125.817 68.2821 124.994 67.8036 124.182C67.2225 123.191 66.6237 122.217 66.0427 121.289C64.2842 118.484 62.6792 116.125 62.165 115.171C60.6068 112.278 45.9572 112.02 45.9572 112.02C41.7679 114.655 29.6649 115.171 29.6649 115.171C29.6649 115.171 21.3395 118.653 17.8714 121.289C17.6198 121.478 22.0963 145.652 22.0963 145.652Z" fill="#48BABE"/>
</g>
<g filter="url(#filter12_d_420_33)">
<path d="M29.2969 83.7835V83.518L29.6126 83.5355C31.406 82.1705 33.4869 81.2317 35.6974 80.7902C37.9078 80.3487 40.1899 80.4162 42.3704 80.9875C40.2802 81.5396 38.3366 82.5433 36.6767 83.9278L47.3986 84.5231L51.9241 94.5744H48.8614L46.393 90.0513V94.5744H36.0348L35.3308 91.0565L33.3754 94.5744H31.3403C31.3277 94.8253 31.3082 95.0743 31.3082 95.3283L13.5537 179.277L8.53678 177.693L4.00004 175.257L23.3235 95.0459C23.8516 92.4054 24.2602 90.9252 25.2175 88.927C26.1749 86.9289 27.569 85.1711 29.2969 83.7835Z" fill="black"/>
</g>
<g filter="url(#filter13_d_420_33)">
<path d="M14.3051 134.972L14.9729 152.549L16.7538 186.59C16.7538 186.59 14.3051 201.274 20.538 201.051C26.7709 200.829 22.0963 183.697 22.0963 183.697L23.8771 156.776L22.0963 137.865L14.3051 134.972Z" fill="#A0616A"/>
</g>
<g filter="url(#filter14_d_420_33)">
<path d="M12.5242 144.539C12.5242 146.542 23.7657 145.985 23.7657 145.985L29.6647 115.171C29.6647 115.171 21.3393 118.653 17.8711 121.289C17.0549 122.135 16.3873 123.113 15.8966 124.181C15.6317 124.896 15.3802 125.723 15.142 126.629C14.906 127.528 14.6857 128.504 14.4787 129.521C13.5071 134.48 12.8543 139.497 12.5242 144.539V144.539Z" fill="#48BABE"/>
</g>
</g>
<defs>
<filter id="filter0_d_420_33" x="139.647" y="0" width="103.566" height="110.389" filterUnits="userSpaceOnUse" color-interpolation-filters="sRGB">
<feFlood flood-opacity="0" result="BackgroundImageFix"/>
<feColorMatrix in="SourceAlpha" type="matrix" values="0 0 0 0 0 0 0 0 0 0 0 0 0 0 0 0 0 0 127 0" result="hardAlpha"/>
<feOffset dy="4"/>
<feGaussianBlur stdDeviation="2"/>
<feComposite in2="hardAlpha" operator="out"/>
<feColorMatrix type="matrix" values="0 0 0 0 0 0 0 0 0 0 0 0 0 0 0 0 0 0 0.25 0"/>
<feBlend mode="normal" in2="BackgroundImageFix" result="effect1_dropShadow_420_33"/>
<feBlend mode="normal" in="SourceGraphic" in2="effect1_dropShadow_420_33" result="shape"/>
</filter>
<filter id="filter1_d_420_33" x="66.2189" y="42.6509" width="108.875" height="92.5889" filterUnits="userSpaceOnUse" color-interpolation-filters="sRGB">
<feFlood flood-opacity="0" result="BackgroundImageFix"/>
<feColorMatrix in="SourceAlpha" type="matrix" values="0 0 0 0 0 0 0 0 0 0 0 0 0 0 0 0 0 0 127 0" result="hardAlpha"/>
<feOffset dy="4"/>
<feGaussianBlur stdDeviation="2"/>
<feComposite in2="hardAlpha" operator="out"/>
<feColorMatrix type="matrix" values="0 0 0 0 0 0 0 0 0 0 0 0 0 0 0 0 0 0 0.25 0"/>
<feBlend mode="normal" in2="BackgroundImageFix" result="effect1_dropShadow_420_33"/>
<feBlend mode="normal" in="SourceGraphic" in2="effect1_dropShadow_420_33" result="shape"/>
</filter>
<filter id="filter2_d_420_33" x="107.167" y="67.4961" width="28.3999" height="36.64" filterUnits="userSpaceOnUse" color-interpolation-filters="sRGB">
<feFlood flood-opacity="0" result="BackgroundImageFix"/>
<feColorMatrix in="SourceAlpha" type="matrix" values="0 0 0 0 0 0 0 0 0 0 0 0 0 0 0 0 0 0 127 0" result="hardAlpha"/>
<feOffset dy="4"/>
<feGaussianBlur stdDeviation="2"/>
<feComposite in2="hardAlpha" operator="out"/>
<feColorMatrix type="matrix" values="0 0 0 0 0 0 0 0 0 0 0 0 0 0 0 0 0 0 0.25 0"/>
<feBlend mode="normal" in2="BackgroundImageFix" result="effect1_dropShadow_420_33"/>
<feBlend mode="normal" in="SourceGraphic" in2="effect1_dropShadow_420_33" result="shape"/>
</filter>
<filter id="filter3_d_420_33" x="0" y="80" width="116.006" height="227" filterUnits="userSpaceOnUse" color-interpolation-filters="sRGB">
<feFlood flood-opacity="0" result="BackgroundImageFix"/>
<feColorMatrix in="SourceAlpha" type="matrix" values="0 0 0 0 0 0 0 0 0 0 0 0 0 0 0 0 0 0 127 0" result="hardAlpha"/>
<feOffset dy="4"/>
<feGaussianBlur stdDeviation="2"/>
<feComposite in2="hardAlpha" operator="out"/>
<feColorMatrix type="matrix" values="0 0 0 0 0 0 0 0 0 0 0 0 0 0 0 0 0 0 0.25 0"/>
<feBlend mode="normal" in2="BackgroundImageFix" result="effect1_dropShadow_420_33"/>
<feBlend mode="normal" in="SourceGraphic" in2="effect1_dropShadow_420_33" result="shape"/>
</filter>
<filter id="filter4_d_420_33" x="62.726" y="278.812" width="44.5236" height="28.1885" filterUnits="userSpaceOnUse" color-interpolation-filters="sRGB">
<feFlood flood-opacity="0" result="BackgroundImageFix"/>
<feColorMatrix in="SourceAlpha" type="matrix" values="0 0 0 0 0 0 0 0 0 0 0 0 0 0 0 0 0 0 127 0" result="hardAlpha"/>
<feOffset dy="4"/>
<feGaussianBlur stdDeviation="2"/>
<feComposite in2="hardAlpha" operator="out"/>
<feColorMatrix type="matrix" values="0 0 0 0 0 0 0 0 0 0 0 0 0 0 0 0 0 0 0.25 0"/>
<feBlend mode="normal" in2="BackgroundImageFix" result="effect1_dropShadow_420_33"/>
<feBlend mode="normal" in="SourceGraphic" in2="effect1_dropShadow_420_33" result="shape"/>
</filter>
<filter id="filter5_d_420_33" x="15.8812" y="280.059" width="23.7655" height="26.9404" filterUnits="userSpaceOnUse" color-interpolation-filters="sRGB">
<feFlood flood-opacity="0" result="BackgroundImageFix"/>
<feColorMatrix in="SourceAlpha" type="matrix" values="0 0 0 0 0 0 0 0 0 0 0 0 0 0 0 0 0 0 127 0" result="hardAlpha"/>
<feOffset dy="4"/>
<feGaussianBlur stdDeviation="2"/>
<feComposite in2="hardAlpha" operator="out"/>
<feColorMatrix type="matrix" values="0 0 0 0 0 0 0 0 0 0 0 0 0 0 0 0 0 0 0.25 0"/>
<feBlend mode="normal" in2="BackgroundImageFix" result="effect1_dropShadow_420_33"/>
<feBlend mode="normal" in="SourceGraphic" in2="effect1_dropShadow_420_33" result="shape"/>
</filter>
<filter id="filter6_d_420_33" x="53.9862" y="125.182" width="62.0198" height="30.2228" filterUnits="userSpaceOnUse" color-interpolation-filters="sRGB">
<feFlood flood-opacity="0" result="BackgroundImageFix"/>
<feColorMatrix in="SourceAlpha" type="matrix" values="0 0 0 0 0 0 0 0 0 0 0 0 0 0 0 0 0 0 127 0" result="hardAlpha"/>
<feOffset dy="4"/>
<feGaussianBlur stdDeviation="2"/>
<feComposite in2="hardAlpha" operator="out"/>
<feColorMatrix type="matrix" values="0 0 0 0 0 0 0 0 0 0 0 0 0 0 0 0 0 0 0.25 0"/>
<feBlend mode="normal" in2="BackgroundImageFix" result="effect1_dropShadow_420_33"/>
<feBlend mode="normal" in="SourceGraphic" in2="effect1_dropShadow_420_33" result="shape"/>
</filter>
<filter id="filter7_d_420_33" x="9.98828" y="80" width="47.4441" height="105.693" filterUnits="userSpaceOnUse" color-interpolation-filters="sRGB">
<feFlood flood-opacity="0" result="BackgroundImageFix"/>
<feColorMatrix in="SourceAlpha" type="matrix" values="0 0 0 0 0 0 0 0 0 0 0 0 0 0 0 0 0 0 127 0" result="hardAlpha"/>
<feOffset dy="4"/>
<feGaussianBlur stdDeviation="2"/>
<feComposite in2="hardAlpha" operator="out"/>
<feColorMatrix type="matrix" values="0 0 0 0 0 0 0 0 0 0 0 0 0 0 0 0 0 0 0.25 0"/>
<feBlend mode="normal" in2="BackgroundImageFix" result="effect1_dropShadow_420_33"/>
<feBlend mode="normal" in="SourceGraphic" in2="effect1_dropShadow_420_33" result="shape"/>
</filter>
<filter id="filter8_d_420_33" x="0.908569" y="154.284" width="90.9672" height="142.317" filterUnits="userSpaceOnUse" color-interpolation-filters="sRGB">
<feFlood flood-opacity="0" result="BackgroundImageFix"/>
<feColorMatrix in="SourceAlpha" type="matrix" values="0 0 0 0 0 0 0 0 0 0 0 0 0 0 0 0 0 0 127 0" result="hardAlpha"/>
<feOffset dy="4"/>
<feGaussianBlur stdDeviation="2"/>
<feComposite in2="hardAlpha" operator="out"/>
<feColorMatrix type="matrix" values="0 0 0 0 0 0 0 0 0 0 0 0 0 0 0 0 0 0 0.25 0"/>
<feBlend mode="normal" in2="BackgroundImageFix" result="effect1_dropShadow_420_33"/>
<feBlend mode="normal" in="SourceGraphic" in2="effect1_dropShadow_420_33" result="shape"/>
</filter>
<filter id="filter9_d_420_33" x="23.55" y="86.0245" width="30.3717" height="30.3601" filterUnits="userSpaceOnUse" color-interpolation-filters="sRGB">
<feFlood flood-opacity="0" result="BackgroundImageFix"/>
<feColorMatrix in="SourceAlpha" type="matrix" values="0 0 0 0 0 0 0 0 0 0 0 0 0 0 0 0 0 0 127 0" result="hardAlpha"/>
<feOffset dy="4"/>
<feGaussianBlur stdDeviation="2"/>
<feComposite in2="hardAlpha" operator="out"/>
<feColorMatrix type="matrix" values="0 0 0 0 0 0 0 0 0 0 0 0 0 0 0 0 0 0 0.25 0"/>
<feBlend mode="normal" in2="BackgroundImageFix" result="effect1_dropShadow_420_33"/>
<feBlend mode="normal" in="SourceGraphic" in2="effect1_dropShadow_420_33" result="shape"/>
</filter>
<filter id="filter10_d_420_33" x="26.9014" y="102.075" width="23.9038" height="27.4054" filterUnits="userSpaceOnUse" color-interpolation-filters="sRGB">
<feFlood flood-opacity="0" result="BackgroundImageFix"/>
<feColorMatrix in="SourceAlpha" type="matrix" values="0 0 0 0 0 0 0 0 0 0 0 0 0 0 0 0 0 0 127 0" result="hardAlpha"/>
<feOffset dy="4"/>
<feGaussianBlur stdDeviation="2"/>
<feComposite in2="hardAlpha" operator="out"/>
<feColorMatrix type="matrix" values="0 0 0 0 0 0 0 0 0 0 0 0 0 0 0 0 0 0 0.25 0"/>
<feBlend mode="normal" in2="BackgroundImageFix" result="effect1_dropShadow_420_33"/>
<feBlend mode="normal" in="SourceGraphic" in2="effect1_dropShadow_420_33" result="shape"/>
</filter>
<filter id="filter11_d_420_33" x="13.8611" y="112.02" width="63.4441" height="55.2032" filterUnits="userSpaceOnUse" color-interpolation-filters="sRGB">
<feFlood flood-opacity="0" result="BackgroundImageFix"/>
<feColorMatrix in="SourceAlpha" type="matrix" values="0 0 0 0 0 0 0 0 0 0 0 0 0 0 0 0 0 0 127 0" result="hardAlpha"/>
<feOffset dy="4"/>
<feGaussianBlur stdDeviation="2"/>
<feComposite in2="hardAlpha" operator="out"/>
<feColorMatrix type="matrix" values="0 0 0 0 0 0 0 0 0 0 0 0 0 0 0 0 0 0 0.25 0"/>
<feBlend mode="normal" in2="BackgroundImageFix" result="effect1_dropShadow_420_33"/>
<feBlend mode="normal" in="SourceGraphic" in2="effect1_dropShadow_420_33" result="shape"/>
</filter>
<filter id="filter12_d_420_33" x="0" y="80.5026" width="55.9241" height="106.775" filterUnits="userSpaceOnUse" color-interpolation-filters="sRGB">
<feFlood flood-opacity="0" result="BackgroundImageFix"/>
<feColorMatrix in="SourceAlpha" type="matrix" values="0 0 0 0 0 0 0 0 0 0 0 0 0 0 0 0 0 0 127 0" result="hardAlpha"/>
<feOffset dy="4"/>
<feGaussianBlur stdDeviation="2"/>
<feComposite in2="hardAlpha" operator="out"/>
<feColorMatrix type="matrix" values="0 0 0 0 0 0 0 0 0 0 0 0 0 0 0 0 0 0 0.25 0"/>
<feBlend mode="normal" in2="BackgroundImageFix" result="effect1_dropShadow_420_33"/>
<feBlend mode="normal" in="SourceGraphic" in2="effect1_dropShadow_420_33" result="shape"/>
</filter>
<filter id="filter13_d_420_33" x="10.3051" y="134.972" width="17.572" height="74.0818" filterUnits="userSpaceOnUse" color-interpolation-filters="sRGB">
<feFlood flood-opacity="0" result="BackgroundImageFix"/>
<feColorMatrix in="SourceAlpha" type="matrix" values="0 0 0 0 0 0 0 0 0 0 0 0 0 0 0 0 0 0 127 0" result="hardAlpha"/>
<feOffset dy="4"/>
<feGaussianBlur stdDeviation="2"/>
<feComposite in2="hardAlpha" operator="out"/>
<feColorMatrix type="matrix" values="0 0 0 0 0 0 0 0 0 0 0 0 0 0 0 0 0 0 0.25 0"/>
<feBlend mode="normal" in2="BackgroundImageFix" result="effect1_dropShadow_420_33"/>
<feBlend mode="normal" in="SourceGraphic" in2="effect1_dropShadow_420_33" result="shape"/>
</filter>
<filter id="filter14_d_420_33" x="8.52417" y="115.171" width="25.1405" height="38.8857" filterUnits="userSpaceOnUse" color-interpolation-filters="sRGB">
<feFlood flood-opacity="0" result="BackgroundImageFix"/>
<feColorMatrix in="SourceAlpha" type="matrix" values="0 0 0 0 0 0 0 0 0 0 0 0 0 0 0 0 0 0 127 0" result="hardAlpha"/>
<feOffset dy="4"/>
<feGaussianBlur stdDeviation="2"/>
<feComposite in2="hardAlpha" operator="out"/>
<feColorMatrix type="matrix" values="0 0 0 0 0 0 0 0 0 0 0 0 0 0 0 0 0 0 0.25 0"/>
<feBlend mode="normal" in2="BackgroundImageFix" result="effect1_dropShadow_420_33"/>
<feBlend mode="normal" in="SourceGraphic" in2="effect1_dropShadow_420_33" result="shape"/>
</filter>
</defs>
</svg>
